<?xml version="1.0" encoding="utf-8"?>
<!-- Generator: Adobe Illustrator 16.0.0, SVG Export Plug-In . SVG Version: 6.00 Build 0)  -->
<!DOCTYPE svg PUBLIC "-//W3C//DTD SVG 1.1//EN" "http://www.w3.org/Graphics/SVG/1.1/DTD/svg11.dtd">
<svg version="1.1" id="Capa_1" xmlns="http://www.w3.org/2000/svg" xmlns:xlink="http://www.w3.org/1999/xlink" x="0px" y="0px"
	 width="52px" height="52px" viewBox="0 0 52 52" enable-background="new 0 0 52 52" xml:space="preserve">
<path d="M50.871,10.733c-0.4-1.149-0.613-2.893-0.166-4.025c0.437-1.109,0.801-2.239,0.456-2.695
	c-0.325-0.435-1.672,0.56-2.794,1.517c-0.926,0.792-2.614,1.472-3.83,1.452h-2.839c-1.216,0.02-2.904-0.66-3.83-1.452
	c-1.124-0.958-2.47-1.952-2.794-1.517c-0.344,0.457,0.02,1.586,0.456,2.695c0.446,1.132,0.233,2.875-0.165,4.025
	c-0.529,1.506-0.84,3.683,0.427,5.818c0.017,0.027,0.033,0.063,0.049,0.091c-0.36,0.188-0.957,0.369-1.566,0.52
	c-1.094,0.271-2.984,0.391-4.2,0.365l-17.586-0.385c-1.217-0.026-2.094-1.032-2.041-2.248C10.95,3.677,6.653,2.191,5.54,1.784
	C4.079,1.25,2.86,1.263,1.877,1.525C0.968,1.767,0.423,2.694,0.653,3.607c0.202,0.802,0.944,1.342,1.769,1.289
	c0.618-0.04,1.244,0.062,1.677,0.299c3.158,1.728,2.315,9.258,1.669,13.025c-0.205,1.201-1.085,2.905-1.146,4.121
	c-0.132,2.637,0.569,7.31,1.087,10.04c0.524,2.764-0.47,4.373-0.407,5.586c0.097,1.878,5.756,10.265,7.471,10.73
	c0.565,0.155,4.36,0.619,4.752-0.534c0.243-0.715,0.027-1.646-1.719-2.113c-1.608-0.431-1.213-2.453-0.619-4.245
	c0.383-1.157,1.392-2.918,2.506-3.407c1.955-0.858,4.873-0.891,6.865-0.78c1.216,0.065,3.224,0.146,4.332,0.658
	c3.892,1.801,4.642,5.966,5.383,8.353c1.303,4.191,2.53,3.893,3.336,3.951c1.433,0.104,3.352-0.186,2.926-1.327
	c-0.554-1.483-1.67-1.782-2.385-2.147c-1.292-0.663-1.477-2.231-1.46-3.436c0.018-1.215,0.986-2.684,1.79-2.365
	c1.056,0.418,1.519,3.876,1.604,4.311c0.352,1.804,3.152,1.644,3.015-0.356c-0.102-1.48-1.703-7.341-0.559-8.216
	c5.828-4.461,6.591-12.662,6.599-16.587c0.002-1.217,0.685-2.857,1.305-3.905C51.711,14.416,51.398,12.237,50.871,10.733z"/>
</svg>
